<svg id="Layer_1" data-name="Layer 1" xmlns="http://www.w3.org/2000/svg" viewBox="0 0 1080 1080"><defs><style>.cls-1{fill:#fff;}</style></defs><rect width="1080" height="1080"/><path class="cls-1" d="M610.78,617.24,605,634.49h-2.59l-4.7-13.77L593,634.49h-2.64l-5.76-17.25h2.54l4.65,14,4.86-14h2.26l4.76,14.1,4.76-14.1Z"/><path class="cls-1" d="M629.6,617.24v17.25h-2.46v-7.68h-9.91v7.68h-2.46V617.24h2.46v7.42h9.91v-7.42Z"/><path class="cls-1" d="M648.28,632.35v2.14H635.76V617.24h12.18v2.15h-9.71v5.3h8.65v2.09h-8.65v5.57Z"/><path class="cls-1" d="M664.79,634.49l-3.72-5.29c-.46,0-.82,0-1.08,0h-4.26v5.24h-2.47V617.24H660a8,8,0,0,1,5.27,1.61,5.41,5.41,0,0,1,1.92,4.41,5.82,5.82,0,0,1-1,3.4,5.6,5.6,0,0,1-2.81,2l4.09,5.79Zm-1.3-8.35a4,4,0,0,0,0-5.75,5.53,5.53,0,0,0-3.58-1h-4.18v7.76h4.18A5.53,5.53,0,0,0,663.49,626.14Z"/><path class="cls-1" d="M684.68,632.35v2.14H672.16V617.24h12.17v2.15h-9.7v5.3h8.65v2.09h-8.65v5.57Z"/><path class="cls-1" d="M700.32,633.55a8.49,8.49,0,0,1-3.27-3.16,9.25,9.25,0,0,1,0-9,8.45,8.45,0,0,1,3.28-3.16,10.28,10.28,0,0,1,8.38-.46,7.64,7.64,0,0,1,2.85,2l-1.6,1.56a6.4,6.4,0,0,0-4.85-2,7.12,7.12,0,0,0-3.48.86,6.29,6.29,0,0,0-2.42,2.38,7,7,0,0,0,0,6.78,6.29,6.29,0,0,0,2.42,2.38,7.12,7.12,0,0,0,3.48.86,6.43,6.43,0,0,0,4.85-2.07l1.6,1.55a7.6,7.6,0,0,1-2.87,2,9.69,9.69,0,0,1-3.71.69A9.52,9.52,0,0,1,700.32,633.55Z"/><path class="cls-1" d="M716.07,617.24h2.47v15.11h9.34v2.14H716.07Z"/><path class="cls-1" d="M742.76,630.18h-9.17l-1.89,4.31h-2.54L737,617.24h2.44l7.83,17.25h-2.58Zm-.86-2-3.72-8.45-3.73,8.45Z"/><path class="cls-1" d="M762.33,634.49l-3.73-5.29c-.45,0-.82,0-1.08,0h-4.26v5.24h-2.47V617.24h6.73a8,8,0,0,1,5.28,1.61,5.41,5.41,0,0,1,1.92,4.41,5.76,5.76,0,0,1-1,3.4,5.55,5.55,0,0,1-2.81,2l4.09,5.79ZM761,626.14a4,4,0,0,0,0-5.75,5.52,5.52,0,0,0-3.57-1h-4.19v7.76h4.19A5.52,5.52,0,0,0,761,626.14Z"/><path class="cls-1" d="M769.69,617.24h2.47v17.25h-2.47Z"/><path class="cls-1" d="M781.74,619.39h-5.91v-2.15H790.1v2.15h-5.92v15.1h-2.44Z"/><path class="cls-1" d="M800.18,628.53v6h-2.44v-6l-6.85-11.24h2.63l5.52,9.1,5.55-9.1H807Z"/><path class="cls-1" d="M834.11,634.49l0-12.56-6.23,10.47h-1.14L820.48,622v12.49h-2.37V617.24h2l7.2,12.13,7.1-12.13h2l0,17.25Z"/><path class="cls-1" d="M855.15,632.35v2.14H842.63V617.24h12.18v2.15H845.1v5.3h8.65v2.09H845.1v5.57Z"/><path class="cls-1" d="M872.65,632.35v2.14H860.13V617.24H872.3v2.15h-9.71v5.3h8.65v2.09h-8.65v5.57Z"/><path class="cls-1" d="M881.05,619.39h-5.91v-2.15H889.4v2.15h-5.91v15.1h-2.44Z"/><path class="cls-1" d="M894.12,634.09a7.73,7.73,0,0,1-2.84-1.57l.91-1.92a7.6,7.6,0,0,0,2.53,1.44,9.23,9.23,0,0,0,3.16.56,5.77,5.77,0,0,0,3.21-.73,2.26,2.26,0,0,0,1.06-1.93,1.94,1.94,0,0,0-.58-1.45,4,4,0,0,0-1.43-.85c-.57-.19-1.37-.42-2.41-.66a25.22,25.22,0,0,1-3.14-.94,5.14,5.14,0,0,1-2-1.44,3.82,3.82,0,0,1-.85-2.62,4.48,4.48,0,0,1,.72-2.49,5.06,5.06,0,0,1,2.21-1.78,9,9,0,0,1,3.67-.66,11.78,11.78,0,0,1,3,.39,8.17,8.17,0,0,1,2.53,1.13l-.81,2a8.93,8.93,0,0,0-2.31-1,8.66,8.66,0,0,0-2.42-.36,5.32,5.32,0,0,0-3.14.77,2.33,2.33,0,0,0-1,2,1.9,1.9,0,0,0,.59,1.44,4.11,4.11,0,0,0,1.47.86,21.88,21.88,0,0,0,2.38.65,25.66,25.66,0,0,1,3.13.94,5.26,5.26,0,0,1,2,1.43,3.74,3.74,0,0,1,.85,2.59,4.4,4.4,0,0,1-.74,2.47,5,5,0,0,1-2.24,1.78,9.39,9.39,0,0,1-3.7.65A11.89,11.89,0,0,1,894.12,634.09Z"/><path class="cls-1" d="M919.8,633.55a8.49,8.49,0,0,1-3.27-3.16,9.25,9.25,0,0,1,0-9,8.52,8.52,0,0,1,3.28-3.16,10.28,10.28,0,0,1,8.38-.46,7.6,7.6,0,0,1,2.86,2l-1.6,1.56a6.42,6.42,0,0,0-4.86-2,7.06,7.06,0,0,0-3.47.86,6.25,6.25,0,0,0-2.43,2.38,7,7,0,0,0,0,6.78,6.25,6.25,0,0,0,2.43,2.38,7.06,7.06,0,0,0,3.47.86,6.45,6.45,0,0,0,4.86-2.07l1.6,1.55a7.68,7.68,0,0,1-2.87,2,9.72,9.72,0,0,1-3.71.69A9.58,9.58,0,0,1,919.8,633.55Z"/><path class="cls-1" d="M946.13,630.18H937l-1.89,4.31h-2.54l7.81-17.25h2.44l7.83,17.25H948Zm-.86-2-3.72-8.45-3.72,8.45Z"/><path class="cls-1" d="M965.7,634.49,962,629.2c-.46,0-.83,0-1.09,0h-4.26v5.24h-2.47V617.24h6.73a8,8,0,0,1,5.28,1.61,5.41,5.41,0,0,1,1.92,4.41,5.76,5.76,0,0,1-1,3.4,5.55,5.55,0,0,1-2.81,2l4.09,5.79Zm-1.31-8.35a4,4,0,0,0,0-5.75,5.52,5.52,0,0,0-3.57-1h-4.19v7.76h4.19A5.52,5.52,0,0,0,964.39,626.14Z"/><path class="cls-1" d="M985.58,632.35v2.14H973.06V617.24h12.18v2.15h-9.71v5.3h8.65v2.09h-8.65v5.57Z"/><rect class="cls-1" x="222.49" y="453.42" width="20.73" height="140.63"/><path class="cls-1" d="M314.56,492.23c-30.88,0-53.45,21.75-53.45,51.83s22.57,51.82,53.45,51.82c23.93,0,44.75-15,51.12-36.19H344.4c-4.46,11-16.13,19.12-29.64,19.12-17.27,0-30.28-11.58-32.91-28.26H367.2a33.5,33.5,0,0,0,.6-6.29C367.6,514,345.45,492.23,314.56,492.23Zm-32.11,42.28c3.66-14.84,16.06-25.21,32.31-25.21,16.46,0,29.47,10.37,32.92,25.21Z"/><path class="cls-1" d="M386.09,532.68v61.37H407V534.51c0-15,9.14-23,24.59-23V494.06C402.76,494.06,386.09,508.29,386.09,532.68Z"/><path class="cls-1" d="M485.26,534.51c-11.58-2.24-20.73-3.87-20.73-14.23,0-7.52,7.73-12.8,18.29-12.8,11.59,0,19.51,6.09,19.92,15h19.51c0-17.89-16.26-30.28-39-30.28-23.37,0-39.22,12-39.22,30.07,0,23.57,23.78,28.05,38.81,30.28,11.38,2,21.34,3.66,21.34,14,0,8.33-8.33,13.82-19.91,13.82-12.4,0-21.34-6.3-21.75-15.85H442.18c.2,18.49,17.27,31.3,41.46,31.3,24,0,41.05-12.4,41.05-30.49C524.69,541.41,499.49,537.15,485.26,534.51Z"/><path class="cls-1" d="M593.19,492.24c-30.89,0-53,21.74-53,51.82v90.63h20.72V580.23c7.93,9.55,20.33,15.65,35,15.65,29.47,0,50.4-21.75,50.4-51.21C646.23,514,624.08,492.24,593.19,492.24ZM593,577.79c-18.69,0-32.11-14.22-32.11-33.73,0-19.72,13.42-33.74,32.11-33.74,18.5,0,31.91,14,31.91,33.74C624.89,563.57,611.48,577.79,593,577.79Z"/><path class="cls-1" d="M839.23,510.32a31.25,31.25,0,0,1,30.89,25.2h21.14c-3-25-24.8-43.28-52-43.28-18.5,0-34,7.84-43.43,20.56a33.61,33.61,0,0,0-39,.06c-9.46-12.76-25-20.63-43.48-20.63-30.89,0-53,21.75-53.24,52a33.5,33.5,0,0,0,.6,6.29h74.9a57.13,57.13,0,0,0-.06-16H680.16c3.45-14.84,16.46-25.21,32.92-25.21,14.9,0,26.56,8.71,31.22,21.6a34.61,34.61,0,0,1,1.73,7.73,42.87,42.87,0,0,1,0,11.92,36.24,36.24,0,0,1-2.68,9.14c-5.18,11.62-16.33,19.12-30.23,19.12-13.51,0-25.18-8.07-29.64-19.12H662.16c6.37,21.19,27.19,36.19,51.12,36.19,25.21,0,44.89-14.5,51.25-36.19a56,56,0,0,0-.45-32.58,17.92,17.92,0,0,1,24.38-.09,54.71,54.71,0,0,0-2.67,17c0,30.07,22.55,51.82,53.44,51.82,27.23,0,49-18.09,52-43.29H870.33a31.29,31.29,0,0,1-31.1,25.2c-18.69,0-32.11-14-32.11-33.73C807.12,524.55,820.54,510.32,839.23,510.32Z"/><path class="cls-1" d="M946.16,534.51c-11.59-2.24-20.73-3.87-20.73-14.23,0-7.52,7.72-12.8,18.29-12.8,11.58,0,19.51,6.09,19.91,15h19.51c0-17.89-16.25-30.28-39-30.28-23.38,0-39.23,12-39.23,30.07,0,23.57,23.78,28.05,38.82,30.28,11.38,2,21.34,3.66,21.34,14,0,8.33-8.34,13.82-19.92,13.82-12.4,0-21.34-6.3-21.74-15.85H903.08c.2,18.49,17.27,31.3,41.45,31.3,24,0,41.05-12.4,41.05-30.49C985.58,541.41,960.38,537.15,946.16,534.51Z"/><path class="cls-1" d="M681,452c-6.85,18.5-2.42,14.07-20.93,20.93,18.51,6.85,14.08,2.42,20.93,20.93,6.86-18.51,2.43-14.08,20.93-20.93C683.4,466.1,687.83,470.53,681,452Z"/><path class="cls-1" d="M700.17,461.59c2.67-7.2.94-5.47,8.14-8.14-7.2-2.67-5.47-.94-8.14-8.14-2.67,7.2-.95,5.47-8.14,8.14C699.22,456.12,697.5,454.39,700.17,461.59Z"/><path class="cls-1" d="M1000.43,492.24v2h-3.94v12.84h-2.43V494.22h-4v-2Z"/><path class="cls-1" d="M1018.5,492.24v14.82h-2.43V496.91l-4.52,10.15h-1.69l-4.54-10.15v10.15h-2.43V492.24h2.62l5.2,11.62,5.19-11.62Z"/><path class="cls-1" d="M133.65,595.88c-41.8,0-72.15-29.94-72.15-71.54,0-41.2,30.35-71.14,72.15-71.14,37.38,0,65.51,23.51,70.94,57.67H182.08c-5-22.1-23.51-37.58-48.43-37.58-28.94,0-49.84,21.31-49.84,51.05s20.9,51.45,49.84,51.45c24.72,0,43.41-15.68,48.43-38h22.51C199.37,572.17,171,595.88,133.65,595.88Z"/></svg>